%TF.GenerationSoftware,KiCad,Pcbnew,9.0.3*%
%TF.CreationDate,2025-07-21T12:13:00-07:00*%
%TF.ProjectId,buttons,62757474-6f6e-4732-9e6b-696361645f70,rev?*%
%TF.SameCoordinates,Original*%
%TF.FileFunction,Drillmap*%
%TF.FilePolarity,Positive*%
%FSLAX45Y45*%
G04 Gerber Fmt 4.5, Leading zero omitted, Abs format (unit mm)*
G04 Created by KiCad (PCBNEW 9.0.3) date 2025-07-21 12:13:00*
%MOMM*%
%LPD*%
G01*
G04 APERTURE LIST*
%ADD10C,0.100000*%
%ADD11C,0.050000*%
%ADD12C,0.200000*%
%ADD13C,0.250000*%
G04 APERTURE END LIST*
D10*
X10485000Y-18640000D02*
X10485000Y-17390000D01*
X16660000Y-18740000D02*
X10585000Y-18740000D01*
X16660000Y-17290000D02*
G75*
G02*
X16760000Y-17390000I0J-100000D01*
G01*
D11*
X16660000Y-17290000D02*
X14810000Y-17290000D01*
D10*
X16760000Y-18500000D02*
X16760000Y-18640000D01*
X16760000Y-18640000D02*
G75*
G02*
X16660000Y-18740000I-100000J0D01*
G01*
X10585000Y-17290083D02*
X14810000Y-17290000D01*
X10585000Y-18740000D02*
G75*
G02*
X10485000Y-18640000I0J100000D01*
G01*
X10485000Y-17390000D02*
G75*
G02*
X10585000Y-17290000I100000J0D01*
G01*
D11*
X16760000Y-17390000D02*
X16760000Y-18500000D01*
D12*
D13*
X12085000Y-17815000D02*
X12335000Y-18065000D01*
X12335000Y-17815000D02*
X12085000Y-18065000D01*
X14225000Y-17815000D02*
X14475000Y-18065000D01*
X14475000Y-17815000D02*
X14225000Y-18065000D01*
D12*
X10740777Y-19056484D02*
X10740777Y-18856484D01*
X10740777Y-18856484D02*
X10788396Y-18856484D01*
X10788396Y-18856484D02*
X10816967Y-18866008D01*
X10816967Y-18866008D02*
X10836015Y-18885055D01*
X10836015Y-18885055D02*
X10845539Y-18904103D01*
X10845539Y-18904103D02*
X10855062Y-18942198D01*
X10855062Y-18942198D02*
X10855062Y-18970770D01*
X10855062Y-18970770D02*
X10845539Y-19008865D01*
X10845539Y-19008865D02*
X10836015Y-19027912D01*
X10836015Y-19027912D02*
X10816967Y-19046960D01*
X10816967Y-19046960D02*
X10788396Y-19056484D01*
X10788396Y-19056484D02*
X10740777Y-19056484D01*
X10940777Y-19056484D02*
X10940777Y-18923150D01*
X10940777Y-18961246D02*
X10950301Y-18942198D01*
X10950301Y-18942198D02*
X10959824Y-18932674D01*
X10959824Y-18932674D02*
X10978872Y-18923150D01*
X10978872Y-18923150D02*
X10997920Y-18923150D01*
X11064586Y-19056484D02*
X11064586Y-18923150D01*
X11064586Y-18856484D02*
X11055062Y-18866008D01*
X11055062Y-18866008D02*
X11064586Y-18875531D01*
X11064586Y-18875531D02*
X11074110Y-18866008D01*
X11074110Y-18866008D02*
X11064586Y-18856484D01*
X11064586Y-18856484D02*
X11064586Y-18875531D01*
X11188396Y-19056484D02*
X11169348Y-19046960D01*
X11169348Y-19046960D02*
X11159824Y-19027912D01*
X11159824Y-19027912D02*
X11159824Y-18856484D01*
X11293158Y-19056484D02*
X11274110Y-19046960D01*
X11274110Y-19046960D02*
X11264586Y-19027912D01*
X11264586Y-19027912D02*
X11264586Y-18856484D01*
X11521729Y-19056484D02*
X11521729Y-18856484D01*
X11521729Y-18856484D02*
X11588396Y-18999341D01*
X11588396Y-18999341D02*
X11655062Y-18856484D01*
X11655062Y-18856484D02*
X11655062Y-19056484D01*
X11836015Y-19056484D02*
X11836015Y-18951722D01*
X11836015Y-18951722D02*
X11826491Y-18932674D01*
X11826491Y-18932674D02*
X11807443Y-18923150D01*
X11807443Y-18923150D02*
X11769348Y-18923150D01*
X11769348Y-18923150D02*
X11750300Y-18932674D01*
X11836015Y-19046960D02*
X11816967Y-19056484D01*
X11816967Y-19056484D02*
X11769348Y-19056484D01*
X11769348Y-19056484D02*
X11750300Y-19046960D01*
X11750300Y-19046960D02*
X11740777Y-19027912D01*
X11740777Y-19027912D02*
X11740777Y-19008865D01*
X11740777Y-19008865D02*
X11750300Y-18989817D01*
X11750300Y-18989817D02*
X11769348Y-18980293D01*
X11769348Y-18980293D02*
X11816967Y-18980293D01*
X11816967Y-18980293D02*
X11836015Y-18970770D01*
X11931253Y-18923150D02*
X11931253Y-19123150D01*
X11931253Y-18932674D02*
X11950300Y-18923150D01*
X11950300Y-18923150D02*
X11988396Y-18923150D01*
X11988396Y-18923150D02*
X12007443Y-18932674D01*
X12007443Y-18932674D02*
X12016967Y-18942198D01*
X12016967Y-18942198D02*
X12026491Y-18961246D01*
X12026491Y-18961246D02*
X12026491Y-19018389D01*
X12026491Y-19018389D02*
X12016967Y-19037436D01*
X12016967Y-19037436D02*
X12007443Y-19046960D01*
X12007443Y-19046960D02*
X11988396Y-19056484D01*
X11988396Y-19056484D02*
X11950300Y-19056484D01*
X11950300Y-19056484D02*
X11931253Y-19046960D01*
X12112205Y-19037436D02*
X12121729Y-19046960D01*
X12121729Y-19046960D02*
X12112205Y-19056484D01*
X12112205Y-19056484D02*
X12102681Y-19046960D01*
X12102681Y-19046960D02*
X12112205Y-19037436D01*
X12112205Y-19037436D02*
X12112205Y-19056484D01*
X12112205Y-18932674D02*
X12121729Y-18942198D01*
X12121729Y-18942198D02*
X12112205Y-18951722D01*
X12112205Y-18951722D02*
X12102681Y-18942198D01*
X12102681Y-18942198D02*
X12112205Y-18932674D01*
X12112205Y-18932674D02*
X12112205Y-18951722D01*
X10280000Y-19285000D02*
X10480000Y-19485000D01*
X10480000Y-19285000D02*
X10280000Y-19485000D01*
X10731253Y-19295531D02*
X10740777Y-19286008D01*
X10740777Y-19286008D02*
X10759824Y-19276484D01*
X10759824Y-19276484D02*
X10807443Y-19276484D01*
X10807443Y-19276484D02*
X10826491Y-19286008D01*
X10826491Y-19286008D02*
X10836015Y-19295531D01*
X10836015Y-19295531D02*
X10845539Y-19314579D01*
X10845539Y-19314579D02*
X10845539Y-19333627D01*
X10845539Y-19333627D02*
X10836015Y-19362198D01*
X10836015Y-19362198D02*
X10721729Y-19476484D01*
X10721729Y-19476484D02*
X10845539Y-19476484D01*
X10931253Y-19457436D02*
X10940777Y-19466960D01*
X10940777Y-19466960D02*
X10931253Y-19476484D01*
X10931253Y-19476484D02*
X10921729Y-19466960D01*
X10921729Y-19466960D02*
X10931253Y-19457436D01*
X10931253Y-19457436D02*
X10931253Y-19476484D01*
X11121729Y-19276484D02*
X11026491Y-19276484D01*
X11026491Y-19276484D02*
X11016967Y-19371722D01*
X11016967Y-19371722D02*
X11026491Y-19362198D01*
X11026491Y-19362198D02*
X11045539Y-19352674D01*
X11045539Y-19352674D02*
X11093158Y-19352674D01*
X11093158Y-19352674D02*
X11112205Y-19362198D01*
X11112205Y-19362198D02*
X11121729Y-19371722D01*
X11121729Y-19371722D02*
X11131253Y-19390770D01*
X11131253Y-19390770D02*
X11131253Y-19438389D01*
X11131253Y-19438389D02*
X11121729Y-19457436D01*
X11121729Y-19457436D02*
X11112205Y-19466960D01*
X11112205Y-19466960D02*
X11093158Y-19476484D01*
X11093158Y-19476484D02*
X11045539Y-19476484D01*
X11045539Y-19476484D02*
X11026491Y-19466960D01*
X11026491Y-19466960D02*
X11016967Y-19457436D01*
X11255062Y-19276484D02*
X11274110Y-19276484D01*
X11274110Y-19276484D02*
X11293158Y-19286008D01*
X11293158Y-19286008D02*
X11302681Y-19295531D01*
X11302681Y-19295531D02*
X11312205Y-19314579D01*
X11312205Y-19314579D02*
X11321729Y-19352674D01*
X11321729Y-19352674D02*
X11321729Y-19400293D01*
X11321729Y-19400293D02*
X11312205Y-19438389D01*
X11312205Y-19438389D02*
X11302681Y-19457436D01*
X11302681Y-19457436D02*
X11293158Y-19466960D01*
X11293158Y-19466960D02*
X11274110Y-19476484D01*
X11274110Y-19476484D02*
X11255062Y-19476484D01*
X11255062Y-19476484D02*
X11236015Y-19466960D01*
X11236015Y-19466960D02*
X11226491Y-19457436D01*
X11226491Y-19457436D02*
X11216967Y-19438389D01*
X11216967Y-19438389D02*
X11207443Y-19400293D01*
X11207443Y-19400293D02*
X11207443Y-19352674D01*
X11207443Y-19352674D02*
X11216967Y-19314579D01*
X11216967Y-19314579D02*
X11226491Y-19295531D01*
X11226491Y-19295531D02*
X11236015Y-19286008D01*
X11236015Y-19286008D02*
X11255062Y-19276484D01*
X11445539Y-19276484D02*
X11464586Y-19276484D01*
X11464586Y-19276484D02*
X11483634Y-19286008D01*
X11483634Y-19286008D02*
X11493158Y-19295531D01*
X11493158Y-19295531D02*
X11502681Y-19314579D01*
X11502681Y-19314579D02*
X11512205Y-19352674D01*
X11512205Y-19352674D02*
X11512205Y-19400293D01*
X11512205Y-19400293D02*
X11502681Y-19438389D01*
X11502681Y-19438389D02*
X11493158Y-19457436D01*
X11493158Y-19457436D02*
X11483634Y-19466960D01*
X11483634Y-19466960D02*
X11464586Y-19476484D01*
X11464586Y-19476484D02*
X11445539Y-19476484D01*
X11445539Y-19476484D02*
X11426491Y-19466960D01*
X11426491Y-19466960D02*
X11416967Y-19457436D01*
X11416967Y-19457436D02*
X11407443Y-19438389D01*
X11407443Y-19438389D02*
X11397920Y-19400293D01*
X11397920Y-19400293D02*
X11397920Y-19352674D01*
X11397920Y-19352674D02*
X11407443Y-19314579D01*
X11407443Y-19314579D02*
X11416967Y-19295531D01*
X11416967Y-19295531D02*
X11426491Y-19286008D01*
X11426491Y-19286008D02*
X11445539Y-19276484D01*
X11597920Y-19476484D02*
X11597920Y-19343150D01*
X11597920Y-19362198D02*
X11607443Y-19352674D01*
X11607443Y-19352674D02*
X11626491Y-19343150D01*
X11626491Y-19343150D02*
X11655062Y-19343150D01*
X11655062Y-19343150D02*
X11674110Y-19352674D01*
X11674110Y-19352674D02*
X11683634Y-19371722D01*
X11683634Y-19371722D02*
X11683634Y-19476484D01*
X11683634Y-19371722D02*
X11693158Y-19352674D01*
X11693158Y-19352674D02*
X11712205Y-19343150D01*
X11712205Y-19343150D02*
X11740777Y-19343150D01*
X11740777Y-19343150D02*
X11759824Y-19352674D01*
X11759824Y-19352674D02*
X11769348Y-19371722D01*
X11769348Y-19371722D02*
X11769348Y-19476484D01*
X11864586Y-19476484D02*
X11864586Y-19343150D01*
X11864586Y-19362198D02*
X11874110Y-19352674D01*
X11874110Y-19352674D02*
X11893158Y-19343150D01*
X11893158Y-19343150D02*
X11921729Y-19343150D01*
X11921729Y-19343150D02*
X11940777Y-19352674D01*
X11940777Y-19352674D02*
X11950301Y-19371722D01*
X11950301Y-19371722D02*
X11950301Y-19476484D01*
X11950301Y-19371722D02*
X11959824Y-19352674D01*
X11959824Y-19352674D02*
X11978872Y-19343150D01*
X11978872Y-19343150D02*
X12007443Y-19343150D01*
X12007443Y-19343150D02*
X12026491Y-19352674D01*
X12026491Y-19352674D02*
X12036015Y-19371722D01*
X12036015Y-19371722D02*
X12036015Y-19476484D01*
X12426491Y-19266960D02*
X12255063Y-19524103D01*
X12683634Y-19276484D02*
X12702682Y-19276484D01*
X12702682Y-19276484D02*
X12721729Y-19286008D01*
X12721729Y-19286008D02*
X12731253Y-19295531D01*
X12731253Y-19295531D02*
X12740777Y-19314579D01*
X12740777Y-19314579D02*
X12750301Y-19352674D01*
X12750301Y-19352674D02*
X12750301Y-19400293D01*
X12750301Y-19400293D02*
X12740777Y-19438389D01*
X12740777Y-19438389D02*
X12731253Y-19457436D01*
X12731253Y-19457436D02*
X12721729Y-19466960D01*
X12721729Y-19466960D02*
X12702682Y-19476484D01*
X12702682Y-19476484D02*
X12683634Y-19476484D01*
X12683634Y-19476484D02*
X12664586Y-19466960D01*
X12664586Y-19466960D02*
X12655063Y-19457436D01*
X12655063Y-19457436D02*
X12645539Y-19438389D01*
X12645539Y-19438389D02*
X12636015Y-19400293D01*
X12636015Y-19400293D02*
X12636015Y-19352674D01*
X12636015Y-19352674D02*
X12645539Y-19314579D01*
X12645539Y-19314579D02*
X12655063Y-19295531D01*
X12655063Y-19295531D02*
X12664586Y-19286008D01*
X12664586Y-19286008D02*
X12683634Y-19276484D01*
X12836015Y-19457436D02*
X12845539Y-19466960D01*
X12845539Y-19466960D02*
X12836015Y-19476484D01*
X12836015Y-19476484D02*
X12826491Y-19466960D01*
X12826491Y-19466960D02*
X12836015Y-19457436D01*
X12836015Y-19457436D02*
X12836015Y-19476484D01*
X12969348Y-19276484D02*
X12988396Y-19276484D01*
X12988396Y-19276484D02*
X13007444Y-19286008D01*
X13007444Y-19286008D02*
X13016967Y-19295531D01*
X13016967Y-19295531D02*
X13026491Y-19314579D01*
X13026491Y-19314579D02*
X13036015Y-19352674D01*
X13036015Y-19352674D02*
X13036015Y-19400293D01*
X13036015Y-19400293D02*
X13026491Y-19438389D01*
X13026491Y-19438389D02*
X13016967Y-19457436D01*
X13016967Y-19457436D02*
X13007444Y-19466960D01*
X13007444Y-19466960D02*
X12988396Y-19476484D01*
X12988396Y-19476484D02*
X12969348Y-19476484D01*
X12969348Y-19476484D02*
X12950301Y-19466960D01*
X12950301Y-19466960D02*
X12940777Y-19457436D01*
X12940777Y-19457436D02*
X12931253Y-19438389D01*
X12931253Y-19438389D02*
X12921729Y-19400293D01*
X12921729Y-19400293D02*
X12921729Y-19352674D01*
X12921729Y-19352674D02*
X12931253Y-19314579D01*
X12931253Y-19314579D02*
X12940777Y-19295531D01*
X12940777Y-19295531D02*
X12950301Y-19286008D01*
X12950301Y-19286008D02*
X12969348Y-19276484D01*
X13131253Y-19476484D02*
X13169348Y-19476484D01*
X13169348Y-19476484D02*
X13188396Y-19466960D01*
X13188396Y-19466960D02*
X13197920Y-19457436D01*
X13197920Y-19457436D02*
X13216967Y-19428865D01*
X13216967Y-19428865D02*
X13226491Y-19390770D01*
X13226491Y-19390770D02*
X13226491Y-19314579D01*
X13226491Y-19314579D02*
X13216967Y-19295531D01*
X13216967Y-19295531D02*
X13207444Y-19286008D01*
X13207444Y-19286008D02*
X13188396Y-19276484D01*
X13188396Y-19276484D02*
X13150301Y-19276484D01*
X13150301Y-19276484D02*
X13131253Y-19286008D01*
X13131253Y-19286008D02*
X13121729Y-19295531D01*
X13121729Y-19295531D02*
X13112205Y-19314579D01*
X13112205Y-19314579D02*
X13112205Y-19362198D01*
X13112205Y-19362198D02*
X13121729Y-19381246D01*
X13121729Y-19381246D02*
X13131253Y-19390770D01*
X13131253Y-19390770D02*
X13150301Y-19400293D01*
X13150301Y-19400293D02*
X13188396Y-19400293D01*
X13188396Y-19400293D02*
X13207444Y-19390770D01*
X13207444Y-19390770D02*
X13216967Y-19381246D01*
X13216967Y-19381246D02*
X13226491Y-19362198D01*
X13340777Y-19362198D02*
X13321729Y-19352674D01*
X13321729Y-19352674D02*
X13312205Y-19343150D01*
X13312205Y-19343150D02*
X13302682Y-19324103D01*
X13302682Y-19324103D02*
X13302682Y-19314579D01*
X13302682Y-19314579D02*
X13312205Y-19295531D01*
X13312205Y-19295531D02*
X13321729Y-19286008D01*
X13321729Y-19286008D02*
X13340777Y-19276484D01*
X13340777Y-19276484D02*
X13378872Y-19276484D01*
X13378872Y-19276484D02*
X13397920Y-19286008D01*
X13397920Y-19286008D02*
X13407444Y-19295531D01*
X13407444Y-19295531D02*
X13416967Y-19314579D01*
X13416967Y-19314579D02*
X13416967Y-19324103D01*
X13416967Y-19324103D02*
X13407444Y-19343150D01*
X13407444Y-19343150D02*
X13397920Y-19352674D01*
X13397920Y-19352674D02*
X13378872Y-19362198D01*
X13378872Y-19362198D02*
X13340777Y-19362198D01*
X13340777Y-19362198D02*
X13321729Y-19371722D01*
X13321729Y-19371722D02*
X13312205Y-19381246D01*
X13312205Y-19381246D02*
X13302682Y-19400293D01*
X13302682Y-19400293D02*
X13302682Y-19438389D01*
X13302682Y-19438389D02*
X13312205Y-19457436D01*
X13312205Y-19457436D02*
X13321729Y-19466960D01*
X13321729Y-19466960D02*
X13340777Y-19476484D01*
X13340777Y-19476484D02*
X13378872Y-19476484D01*
X13378872Y-19476484D02*
X13397920Y-19466960D01*
X13397920Y-19466960D02*
X13407444Y-19457436D01*
X13407444Y-19457436D02*
X13416967Y-19438389D01*
X13416967Y-19438389D02*
X13416967Y-19400293D01*
X13416967Y-19400293D02*
X13407444Y-19381246D01*
X13407444Y-19381246D02*
X13397920Y-19371722D01*
X13397920Y-19371722D02*
X13378872Y-19362198D01*
X13588396Y-19343150D02*
X13588396Y-19476484D01*
X13540777Y-19266960D02*
X13493158Y-19409817D01*
X13493158Y-19409817D02*
X13616967Y-19409817D01*
X13683634Y-19276484D02*
X13683634Y-19314579D01*
X13759825Y-19276484D02*
X13759825Y-19314579D01*
X14055063Y-19552674D02*
X14045539Y-19543150D01*
X14045539Y-19543150D02*
X14026491Y-19514579D01*
X14026491Y-19514579D02*
X14016967Y-19495531D01*
X14016967Y-19495531D02*
X14007444Y-19466960D01*
X14007444Y-19466960D02*
X13997920Y-19419341D01*
X13997920Y-19419341D02*
X13997920Y-19381246D01*
X13997920Y-19381246D02*
X14007444Y-19333627D01*
X14007444Y-19333627D02*
X14016967Y-19305055D01*
X14016967Y-19305055D02*
X14026491Y-19286008D01*
X14026491Y-19286008D02*
X14045539Y-19257436D01*
X14045539Y-19257436D02*
X14055063Y-19247912D01*
X14121729Y-19295531D02*
X14131253Y-19286008D01*
X14131253Y-19286008D02*
X14150301Y-19276484D01*
X14150301Y-19276484D02*
X14197920Y-19276484D01*
X14197920Y-19276484D02*
X14216967Y-19286008D01*
X14216967Y-19286008D02*
X14226491Y-19295531D01*
X14226491Y-19295531D02*
X14236015Y-19314579D01*
X14236015Y-19314579D02*
X14236015Y-19333627D01*
X14236015Y-19333627D02*
X14226491Y-19362198D01*
X14226491Y-19362198D02*
X14112206Y-19476484D01*
X14112206Y-19476484D02*
X14236015Y-19476484D01*
X14474110Y-19476484D02*
X14474110Y-19276484D01*
X14559825Y-19476484D02*
X14559825Y-19371722D01*
X14559825Y-19371722D02*
X14550301Y-19352674D01*
X14550301Y-19352674D02*
X14531253Y-19343150D01*
X14531253Y-19343150D02*
X14502682Y-19343150D01*
X14502682Y-19343150D02*
X14483634Y-19352674D01*
X14483634Y-19352674D02*
X14474110Y-19362198D01*
X14683634Y-19476484D02*
X14664587Y-19466960D01*
X14664587Y-19466960D02*
X14655063Y-19457436D01*
X14655063Y-19457436D02*
X14645539Y-19438389D01*
X14645539Y-19438389D02*
X14645539Y-19381246D01*
X14645539Y-19381246D02*
X14655063Y-19362198D01*
X14655063Y-19362198D02*
X14664587Y-19352674D01*
X14664587Y-19352674D02*
X14683634Y-19343150D01*
X14683634Y-19343150D02*
X14712206Y-19343150D01*
X14712206Y-19343150D02*
X14731253Y-19352674D01*
X14731253Y-19352674D02*
X14740777Y-19362198D01*
X14740777Y-19362198D02*
X14750301Y-19381246D01*
X14750301Y-19381246D02*
X14750301Y-19438389D01*
X14750301Y-19438389D02*
X14740777Y-19457436D01*
X14740777Y-19457436D02*
X14731253Y-19466960D01*
X14731253Y-19466960D02*
X14712206Y-19476484D01*
X14712206Y-19476484D02*
X14683634Y-19476484D01*
X14864587Y-19476484D02*
X14845539Y-19466960D01*
X14845539Y-19466960D02*
X14836015Y-19447912D01*
X14836015Y-19447912D02*
X14836015Y-19276484D01*
X15016968Y-19466960D02*
X14997920Y-19476484D01*
X14997920Y-19476484D02*
X14959825Y-19476484D01*
X14959825Y-19476484D02*
X14940777Y-19466960D01*
X14940777Y-19466960D02*
X14931253Y-19447912D01*
X14931253Y-19447912D02*
X14931253Y-19371722D01*
X14931253Y-19371722D02*
X14940777Y-19352674D01*
X14940777Y-19352674D02*
X14959825Y-19343150D01*
X14959825Y-19343150D02*
X14997920Y-19343150D01*
X14997920Y-19343150D02*
X15016968Y-19352674D01*
X15016968Y-19352674D02*
X15026491Y-19371722D01*
X15026491Y-19371722D02*
X15026491Y-19390770D01*
X15026491Y-19390770D02*
X14931253Y-19409817D01*
X15102682Y-19466960D02*
X15121729Y-19476484D01*
X15121729Y-19476484D02*
X15159825Y-19476484D01*
X15159825Y-19476484D02*
X15178872Y-19466960D01*
X15178872Y-19466960D02*
X15188396Y-19447912D01*
X15188396Y-19447912D02*
X15188396Y-19438389D01*
X15188396Y-19438389D02*
X15178872Y-19419341D01*
X15178872Y-19419341D02*
X15159825Y-19409817D01*
X15159825Y-19409817D02*
X15131253Y-19409817D01*
X15131253Y-19409817D02*
X15112206Y-19400293D01*
X15112206Y-19400293D02*
X15102682Y-19381246D01*
X15102682Y-19381246D02*
X15102682Y-19371722D01*
X15102682Y-19371722D02*
X15112206Y-19352674D01*
X15112206Y-19352674D02*
X15131253Y-19343150D01*
X15131253Y-19343150D02*
X15159825Y-19343150D01*
X15159825Y-19343150D02*
X15178872Y-19352674D01*
X15255063Y-19552674D02*
X15264587Y-19543150D01*
X15264587Y-19543150D02*
X15283634Y-19514579D01*
X15283634Y-19514579D02*
X15293158Y-19495531D01*
X15293158Y-19495531D02*
X15302682Y-19466960D01*
X15302682Y-19466960D02*
X15312206Y-19419341D01*
X15312206Y-19419341D02*
X15312206Y-19381246D01*
X15312206Y-19381246D02*
X15302682Y-19333627D01*
X15302682Y-19333627D02*
X15293158Y-19305055D01*
X15293158Y-19305055D02*
X15283634Y-19286008D01*
X15283634Y-19286008D02*
X15264587Y-19257436D01*
X15264587Y-19257436D02*
X15255063Y-19247912D01*
X15616968Y-19552674D02*
X15607444Y-19543150D01*
X15607444Y-19543150D02*
X15588396Y-19514579D01*
X15588396Y-19514579D02*
X15578872Y-19495531D01*
X15578872Y-19495531D02*
X15569349Y-19466960D01*
X15569349Y-19466960D02*
X15559825Y-19419341D01*
X15559825Y-19419341D02*
X15559825Y-19381246D01*
X15559825Y-19381246D02*
X15569349Y-19333627D01*
X15569349Y-19333627D02*
X15578872Y-19305055D01*
X15578872Y-19305055D02*
X15588396Y-19286008D01*
X15588396Y-19286008D02*
X15607444Y-19257436D01*
X15607444Y-19257436D02*
X15616968Y-19247912D01*
X15693158Y-19343150D02*
X15693158Y-19476484D01*
X15693158Y-19362198D02*
X15702682Y-19352674D01*
X15702682Y-19352674D02*
X15721729Y-19343150D01*
X15721729Y-19343150D02*
X15750301Y-19343150D01*
X15750301Y-19343150D02*
X15769349Y-19352674D01*
X15769349Y-19352674D02*
X15778872Y-19371722D01*
X15778872Y-19371722D02*
X15778872Y-19476484D01*
X15902682Y-19476484D02*
X15883634Y-19466960D01*
X15883634Y-19466960D02*
X15874110Y-19457436D01*
X15874110Y-19457436D02*
X15864587Y-19438389D01*
X15864587Y-19438389D02*
X15864587Y-19381246D01*
X15864587Y-19381246D02*
X15874110Y-19362198D01*
X15874110Y-19362198D02*
X15883634Y-19352674D01*
X15883634Y-19352674D02*
X15902682Y-19343150D01*
X15902682Y-19343150D02*
X15931253Y-19343150D01*
X15931253Y-19343150D02*
X15950301Y-19352674D01*
X15950301Y-19352674D02*
X15959825Y-19362198D01*
X15959825Y-19362198D02*
X15969349Y-19381246D01*
X15969349Y-19381246D02*
X15969349Y-19438389D01*
X15969349Y-19438389D02*
X15959825Y-19457436D01*
X15959825Y-19457436D02*
X15950301Y-19466960D01*
X15950301Y-19466960D02*
X15931253Y-19476484D01*
X15931253Y-19476484D02*
X15902682Y-19476484D01*
X16026491Y-19343150D02*
X16102682Y-19343150D01*
X16055063Y-19276484D02*
X16055063Y-19447912D01*
X16055063Y-19447912D02*
X16064587Y-19466960D01*
X16064587Y-19466960D02*
X16083634Y-19476484D01*
X16083634Y-19476484D02*
X16102682Y-19476484D01*
X16321730Y-19343150D02*
X16321730Y-19543150D01*
X16321730Y-19352674D02*
X16340777Y-19343150D01*
X16340777Y-19343150D02*
X16378872Y-19343150D01*
X16378872Y-19343150D02*
X16397920Y-19352674D01*
X16397920Y-19352674D02*
X16407444Y-19362198D01*
X16407444Y-19362198D02*
X16416968Y-19381246D01*
X16416968Y-19381246D02*
X16416968Y-19438389D01*
X16416968Y-19438389D02*
X16407444Y-19457436D01*
X16407444Y-19457436D02*
X16397920Y-19466960D01*
X16397920Y-19466960D02*
X16378872Y-19476484D01*
X16378872Y-19476484D02*
X16340777Y-19476484D01*
X16340777Y-19476484D02*
X16321730Y-19466960D01*
X16531253Y-19476484D02*
X16512206Y-19466960D01*
X16512206Y-19466960D02*
X16502682Y-19447912D01*
X16502682Y-19447912D02*
X16502682Y-19276484D01*
X16693158Y-19476484D02*
X16693158Y-19371722D01*
X16693158Y-19371722D02*
X16683634Y-19352674D01*
X16683634Y-19352674D02*
X16664587Y-19343150D01*
X16664587Y-19343150D02*
X16626491Y-19343150D01*
X16626491Y-19343150D02*
X16607444Y-19352674D01*
X16693158Y-19466960D02*
X16674111Y-19476484D01*
X16674111Y-19476484D02*
X16626491Y-19476484D01*
X16626491Y-19476484D02*
X16607444Y-19466960D01*
X16607444Y-19466960D02*
X16597920Y-19447912D01*
X16597920Y-19447912D02*
X16597920Y-19428865D01*
X16597920Y-19428865D02*
X16607444Y-19409817D01*
X16607444Y-19409817D02*
X16626491Y-19400293D01*
X16626491Y-19400293D02*
X16674111Y-19400293D01*
X16674111Y-19400293D02*
X16693158Y-19390770D01*
X16759825Y-19343150D02*
X16836015Y-19343150D01*
X16788396Y-19276484D02*
X16788396Y-19447912D01*
X16788396Y-19447912D02*
X16797920Y-19466960D01*
X16797920Y-19466960D02*
X16816968Y-19476484D01*
X16816968Y-19476484D02*
X16836015Y-19476484D01*
X16978873Y-19466960D02*
X16959825Y-19476484D01*
X16959825Y-19476484D02*
X16921730Y-19476484D01*
X16921730Y-19476484D02*
X16902682Y-19466960D01*
X16902682Y-19466960D02*
X16893158Y-19447912D01*
X16893158Y-19447912D02*
X16893158Y-19371722D01*
X16893158Y-19371722D02*
X16902682Y-19352674D01*
X16902682Y-19352674D02*
X16921730Y-19343150D01*
X16921730Y-19343150D02*
X16959825Y-19343150D01*
X16959825Y-19343150D02*
X16978873Y-19352674D01*
X16978873Y-19352674D02*
X16988396Y-19371722D01*
X16988396Y-19371722D02*
X16988396Y-19390770D01*
X16988396Y-19390770D02*
X16893158Y-19409817D01*
X17159825Y-19476484D02*
X17159825Y-19276484D01*
X17159825Y-19466960D02*
X17140777Y-19476484D01*
X17140777Y-19476484D02*
X17102682Y-19476484D01*
X17102682Y-19476484D02*
X17083634Y-19466960D01*
X17083634Y-19466960D02*
X17074111Y-19457436D01*
X17074111Y-19457436D02*
X17064587Y-19438389D01*
X17064587Y-19438389D02*
X17064587Y-19381246D01*
X17064587Y-19381246D02*
X17074111Y-19362198D01*
X17074111Y-19362198D02*
X17083634Y-19352674D01*
X17083634Y-19352674D02*
X17102682Y-19343150D01*
X17102682Y-19343150D02*
X17140777Y-19343150D01*
X17140777Y-19343150D02*
X17159825Y-19352674D01*
X17236015Y-19552674D02*
X17245539Y-19543150D01*
X17245539Y-19543150D02*
X17264587Y-19514579D01*
X17264587Y-19514579D02*
X17274111Y-19495531D01*
X17274111Y-19495531D02*
X17283634Y-19466960D01*
X17283634Y-19466960D02*
X17293158Y-19419341D01*
X17293158Y-19419341D02*
X17293158Y-19381246D01*
X17293158Y-19381246D02*
X17283634Y-19333627D01*
X17283634Y-19333627D02*
X17274111Y-19305055D01*
X17274111Y-19305055D02*
X17264587Y-19286008D01*
X17264587Y-19286008D02*
X17245539Y-19257436D01*
X17245539Y-19257436D02*
X17236015Y-19247912D01*
M02*
